<svg width="56" height="52" viewBox="0 0 56 52" fill="none" xmlns="http://www.w3.org/2000/svg">
<path d="M12.3827 23.504C12.2323 23.7046 12.2156 23.855 12.3493 24.0055C12.4663 24.1392 12.6334 24.206 12.834 24.206H26.4727C26.6733 24.206 26.8237 24.1392 26.924 24.0055C27.0243 23.855 27.0243 23.7046 26.924 23.504L24.701 18.6904C24.584 18.4396 24.467 18.2558 24.3835 18.1555C24.2999 18.0552 24.1327 18.0051 23.8987 18.0051H21.3248C21.0573 18.0051 20.8902 18.0552 20.7899 18.1722C20.7063 18.2725 20.7231 18.4396 20.8568 18.6904L22.1438 21.5151H17.3134L20.7899 15.5648C20.9236 15.3141 20.9403 15.1302 20.8568 15.03C20.7732 14.9297 20.6061 14.8795 20.3386 14.8795H17.8315C17.5808 14.8795 17.4137 14.9297 17.3301 15.03C17.2465 15.1302 17.1295 15.2974 16.9624 15.5648L12.3827 23.504ZM26.2722 17.8714C26.4727 18.0218 26.6399 18.0218 26.7736 17.9048C26.9073 17.7711 26.9742 17.6039 26.9574 17.4034V14.8963C26.9742 14.6288 26.9407 14.4617 26.8404 14.3781C26.7569 14.2778 26.5563 14.094 26.2722 13.8098L21.5755 9.59786C21.3248 9.48087 21.1409 9.44744 21.0406 9.54772C20.9403 9.63129 20.8902 9.79844 20.8902 10.0659V12.7067C20.8902 12.9407 20.9403 13.1078 21.0406 13.1914C21.1409 13.275 21.3248 13.4421 21.5755 13.6928L26.2722 17.8714ZM12.9677 17.8714L17.6644 13.6928C17.9151 13.4421 18.0989 13.275 18.1992 13.1914C18.2995 13.1078 18.3496 12.9407 18.3496 12.7067V10.0659C18.3496 9.79844 18.2995 9.63129 18.1992 9.54772C18.0989 9.44744 17.9151 9.48087 17.6644 9.59786L12.9677 13.8098C12.6836 14.094 12.483 14.2778 12.3994 14.3781C12.2991 14.4617 12.2657 14.6288 12.2824 14.8963V17.4034C12.2657 17.6039 12.3326 17.7711 12.4663 17.9048C12.6 18.0218 12.7671 18.0218 12.9677 17.8714Z" fill="white"/>
<path d="M29.6818 12.5563H34.5958V13.0243H30.8518C30.551 13.0243 30.3003 13.0911 30.1331 13.2415C29.966 13.392 29.8824 13.6427 29.8824 13.9937V18.8241C29.8824 19.2252 29.966 19.4759 30.1498 19.5929C30.317 19.7099 30.5677 19.7768 30.8685 19.7768H34.5958V20.2281H29.6818C29.4144 20.2281 29.2306 20.2782 29.1303 20.3785C29.03 20.4788 28.9966 20.6793 28.9966 20.9969V21.4482C28.9966 21.6989 29.03 21.866 29.1303 21.983C29.2306 22.1 29.4144 22.1502 29.6818 22.1502H34.5958V23.5542C34.6125 23.738 34.6794 23.8885 34.8131 24.0222C34.9301 24.1559 35.0972 24.206 35.3145 24.206H37.4205C37.6211 24.206 37.7882 24.1559 37.9052 24.0222C38.0222 23.8885 38.0723 23.738 38.0723 23.5542V22.1502H42.9529C43.237 22.1502 43.4376 22.1 43.5379 21.983C43.6382 21.866 43.6716 21.6989 43.6716 21.4482V20.9969C43.6716 20.6793 43.6382 20.4788 43.5379 20.3785C43.4376 20.2782 43.237 20.2281 42.9529 20.2281H38.0723V19.7768H41.8163C42.1673 19.7768 42.418 19.7099 42.5685 19.5929C42.7189 19.4592 42.8025 19.2252 42.8025 18.8575V13.977C42.8025 13.626 42.7189 13.392 42.5685 13.2415C42.4013 13.0911 42.1506 13.0243 41.7996 13.0243H38.0723V12.5563H42.9529C43.237 12.5563 43.4376 12.5061 43.5379 12.3891C43.6382 12.2721 43.6716 12.105 43.6716 11.8543V11.403C43.6716 11.0854 43.6382 10.8849 43.5379 10.7846C43.4376 10.6843 43.237 10.6341 42.9529 10.6341H38.0723V10.1494C38.0723 9.98229 38.0222 9.83186 37.9052 9.69815C37.7882 9.56444 37.6211 9.51429 37.4205 9.51429H35.3145C35.0972 9.51429 34.9301 9.56444 34.8131 9.69815C34.6794 9.83186 34.6125 9.98229 34.5958 10.1494V10.6341H29.6818C29.4144 10.6341 29.2306 10.6843 29.1303 10.7846C29.03 10.8849 28.9966 11.0854 28.9966 11.403V11.8543C28.9966 12.105 29.03 12.2721 29.1303 12.3891C29.2306 12.5061 29.4144 12.5563 29.6818 12.5563ZM33.359 17.8547V17.3532H34.5958V17.8547H33.359ZM39.3092 17.8547H38.0723V17.3532H39.3092V17.8547ZM39.3092 14.9464V15.4311H38.0723V14.9464H39.3092ZM33.359 14.9464H34.5958V15.4311H33.359V14.9464Z" fill="white"/>
<path d="M27.0076 34.5855V27.5656C27.0076 27.2981 26.9742 27.1143 26.8739 27.0307C26.7903 26.9304 26.5897 26.897 26.2722 26.897H23.9823L23.999 26.8134C24.0659 26.5627 24.0659 26.3956 23.9823 26.2953C23.8987 26.2117 23.7483 26.1616 23.5477 26.1783H22.2273C22.0435 26.1616 21.893 26.195 21.8095 26.2953C21.7259 26.3956 21.6256 26.5794 21.5421 26.897H19.2522C19.0349 26.897 18.8511 26.9639 18.7341 27.0809C18.6004 27.2146 18.5335 27.365 18.5335 27.5321V34.6189C18.5335 34.7694 18.6004 34.9198 18.7341 35.0535C18.8511 35.1872 19.0349 35.2541 19.2522 35.2541H26.2722C26.5897 35.2541 26.7903 35.2039 26.8739 35.1037C26.9742 35.0201 27.0076 34.8362 27.0076 34.5855ZM20.5058 28.5517H25.0353V33.5827H20.5058V28.5517ZM12.8173 34.2345H14.472V40.0845C14.4887 40.285 14.5723 40.4689 14.706 40.6193C14.8564 40.7865 15.0402 40.87 15.2575 40.87H15.3578C15.5751 40.87 15.759 40.7865 15.9094 40.6193C16.0598 40.4689 16.1434 40.285 16.1434 40.0845V34.2345H17.4805C17.7814 34.2345 17.9987 34.1677 18.1157 34.0172C18.2327 33.8835 18.2828 33.683 18.2828 33.3988V32.9475C18.2661 32.5965 18.1992 32.3625 18.0989 32.2288C17.9987 32.1118 17.7814 32.045 17.4805 32.045H16.5779L17.6811 30.0226C17.8148 29.8053 17.8817 29.5378 17.8984 29.2203C17.8984 28.3177 17.8984 27.7661 17.8984 27.6157C17.8984 27.4486 17.8482 27.3149 17.7312 27.2313C17.6142 27.1477 17.4805 27.1143 17.3468 27.1143C17.2131 27.131 17.0292 27.2814 16.8287 27.599L15.1071 30.7245L14.8397 30.3234L16.5111 27.2647C16.6114 26.9973 16.6281 26.7967 16.5445 26.6296C16.4777 26.4457 16.3272 26.3622 16.11 26.3454H15.1907C15.0402 26.3454 14.9065 26.3622 14.8062 26.3956C14.6893 26.429 14.5723 26.5627 14.4218 26.7967L13.5694 28.3511L13.1348 27.6993C12.951 27.4151 12.7838 27.2647 12.6501 27.248C12.4997 27.2313 12.3827 27.2814 12.2657 27.365C12.132 27.4486 12.0818 27.5823 12.0818 27.7327C12.0818 27.8999 12.0818 28.3679 12.0818 29.1534C12.0986 29.471 12.1821 29.7384 12.3158 29.9557L13.7031 32.045H12.8173C12.5331 32.045 12.3493 32.1118 12.2323 32.2288C12.0986 32.3625 12.0484 32.5965 12.0484 32.9475V33.4657C12.0484 33.6997 12.0986 33.8835 12.2156 34.0172C12.3326 34.1677 12.5331 34.2345 12.8173 34.2345ZM11.9648 38.6136V39.2822C11.9648 39.5663 12.0484 39.7836 12.1988 39.9173C12.366 40.051 12.5498 40.1179 12.7838 40.1179C13.068 40.1179 13.3855 39.934 13.7365 39.5329C14.1043 39.1318 14.2881 38.4465 14.2881 37.4436V35.4212C14.2881 35.1872 14.2213 34.9867 14.1043 34.8195C13.9873 34.6524 13.7867 34.5688 13.536 34.5688H13.4023C13.1181 34.5688 12.9176 34.6524 12.8006 34.8195C12.6836 34.9867 12.6334 35.1872 12.6334 35.4045V37.1929C12.6167 37.4938 12.6 37.6609 12.5498 37.7111C12.366 37.7278 12.2156 37.8113 12.1153 37.9618C12.015 38.1122 11.9648 38.3295 11.9648 38.6136ZM22.1438 36.2402C22.1438 36.0062 22.1103 35.8224 22.0268 35.7054C21.9265 35.6051 21.7593 35.5549 21.5086 35.5549H21.1576C20.9069 35.5549 20.7565 35.5884 20.6729 35.7054C20.5893 35.8056 20.5559 35.9895 20.5559 36.2402V40.1346C20.5559 40.4522 20.5893 40.6528 20.6729 40.753C20.7732 40.8533 20.9403 40.9035 21.1911 40.9035H26.6064C26.8572 40.9035 27.0243 40.8366 27.1246 40.7363C27.2249 40.636 27.275 40.4355 27.275 40.1346V37.2598C27.275 37.0091 27.2249 36.8419 27.1246 36.7249C27.0243 36.6079 26.8906 36.5578 26.69 36.5578H26.2722C26.0883 36.5578 25.9546 36.6079 25.8543 36.7082C25.754 36.8085 25.7039 36.9756 25.7039 37.2264V38.3629C25.7039 38.5635 25.6203 38.6638 25.4699 38.6638H22.361C22.2273 38.6638 22.1438 38.5635 22.1438 38.3629V36.2402ZM20.2049 38.6471V36.2402C20.2049 36.0396 20.1548 35.8725 20.0378 35.7388C19.9208 35.6051 19.7536 35.5549 19.5364 35.5549H19.2355C19.0015 35.5549 18.8344 35.6051 18.7174 35.7388C18.6171 35.8892 18.5669 36.0396 18.5669 36.2402V37.9618C18.5669 38.1791 18.5168 38.3462 18.4165 38.4465C18.3329 38.5301 18.2159 38.5802 18.0655 38.5802H17.9652V35.3544C17.9652 35.1705 17.8984 34.9867 17.7479 34.8195C17.5975 34.6524 17.4137 34.5688 17.1797 34.5688H17.1128C16.8621 34.5688 16.6782 34.6524 16.5278 34.8195C16.3941 34.9867 16.3105 35.1705 16.3105 35.3544V38.8476C16.3105 39.0649 16.3941 39.2488 16.5278 39.3992C16.6782 39.5663 16.8621 39.6332 17.1128 39.6332H17.1797C17.2799 39.6332 17.3802 39.6165 17.4638 39.583V40.3185C17.4638 40.5859 17.5139 40.753 17.6142 40.8199C17.7145 40.8867 17.8649 40.9202 18.0655 40.9202C18.7842 40.9202 19.3191 40.7698 19.6701 40.4689C20.0378 40.168 20.2216 39.5496 20.2049 38.6471ZM23.7817 37.7445V36.2068C23.7817 36.0396 23.7149 35.9059 23.5979 35.7722C23.4642 35.6385 23.3138 35.5717 23.1132 35.5717C22.9126 35.5717 22.7455 35.6385 22.6285 35.7722C22.5115 35.9059 22.4613 36.0396 22.4446 36.2068V37.7445C22.4613 37.9116 22.5115 38.0788 22.6285 38.1958C22.7455 38.3295 22.9126 38.3963 23.1466 38.3963C23.3138 38.3963 23.4642 38.3295 23.5979 38.1958C23.7149 38.0788 23.7817 37.9116 23.7817 37.7445ZM25.4532 37.7445V36.2068C25.4532 36.0396 25.3863 35.9059 25.2526 35.7722C25.1356 35.6385 24.9685 35.5717 24.7679 35.5717C24.5673 35.5717 24.4169 35.6385 24.2999 35.7722C24.1829 35.9059 24.116 36.0396 24.116 36.2068V37.7445C24.116 37.9116 24.1829 38.0788 24.2999 38.1958C24.4169 38.3295 24.584 38.3963 24.8013 38.3963C24.9852 38.3963 25.1356 38.3295 25.2526 38.1958C25.3863 38.0788 25.4532 37.9116 25.4532 37.7445ZM21.8095 28.769C21.6758 28.769 21.5755 28.8024 21.4752 28.886C21.3916 28.9696 21.3582 29.0698 21.3582 29.1868V29.5378C21.3582 29.7886 21.3248 29.9557 21.2412 30.0727C21.1409 30.173 21.0573 30.2565 20.9905 30.3067C20.9069 30.3736 20.8401 30.4237 20.7899 30.4738C20.7398 30.524 20.7063 30.6075 20.7063 30.7413V31.3095C20.7063 31.4265 20.7565 31.5268 20.8401 31.5937C20.9236 31.6605 21.0239 31.694 21.1409 31.694C21.3415 31.694 21.4919 31.6438 21.6089 31.577L21.8596 31.7943C21.3916 31.928 21.1075 32.0115 21.0239 32.0283C20.9403 32.045 20.8568 32.0784 20.8066 32.1453C20.7398 32.1954 20.7063 32.2957 20.7063 32.4294V32.9977C20.7063 33.1314 20.7565 33.2317 20.8401 33.2818C20.9236 33.3487 21.0239 33.3654 21.1409 33.3654C21.4418 33.3654 22.01 33.1982 22.829 32.8472C23.4308 33.1982 23.9322 33.3654 24.35 33.3654C24.5005 33.3654 24.6175 33.332 24.701 33.2651C24.8013 33.215 24.8515 33.098 24.8515 32.9642V32.4628C24.8515 32.3291 24.8013 32.2288 24.701 32.162C24.6175 32.0784 24.5005 32.045 24.35 32.0283C24.2163 32.0283 24.0157 31.9447 23.765 31.7943C24.1829 31.4265 24.467 31.0421 24.584 30.6243C24.701 30.2231 24.7679 29.8554 24.7679 29.5546V29.1868C24.7679 29.0698 24.7177 28.9696 24.6342 28.886C24.5506 28.8024 24.4503 28.769 24.3166 28.769H21.8095ZM22.6619 29.9056H23.3973C23.3639 30.3401 23.1633 30.6911 22.8123 30.9251L22.4613 30.5574C22.5616 30.3568 22.6285 30.1396 22.6619 29.9056Z" fill="white"/>
<path d="M29.4813 32.0784H29.5147V36.0731C29.2306 36.1901 29.0467 36.2904 28.9464 36.3739C28.8628 36.4575 28.8127 36.6414 28.8294 36.8921V38.3629C28.8127 38.5635 28.8796 38.7306 29.0133 38.8476C29.147 38.9813 29.3141 39.0482 29.5147 39.0148L34.4119 37.7111C34.6627 37.6442 34.8465 37.5606 34.9468 37.4771C35.0471 37.3935 35.0972 37.2598 35.0972 37.0592V35.3377C35.0972 35.0702 35.0471 34.9031 34.9468 34.8195C34.8632 34.7359 34.7128 34.7025 34.4955 34.7192V32.0784H34.5457C34.8298 32.0784 35.0137 32.0282 35.1139 31.9113C35.2142 31.7943 35.2644 31.6271 35.2644 31.3764V29.939C35.2644 29.6214 35.2142 29.4208 35.1139 29.3206C35.0137 29.2203 34.8298 29.1701 34.5457 29.1701H33.125V27.1979C33.125 27.0307 33.0581 26.897 32.9411 26.7633C32.8408 26.6296 32.6737 26.5627 32.4898 26.5627H31.6708C31.4535 26.5627 31.2697 26.6296 31.1527 26.7633C31.019 26.897 30.9521 27.0307 30.9521 27.1979V29.1701H29.4813C29.2138 29.1701 29.03 29.2203 28.9464 29.3206C28.8461 29.4208 28.796 29.6214 28.796 29.939V31.3764C28.796 31.6271 28.8461 31.7943 28.9464 31.9113C29.03 32.0282 29.2138 32.0784 29.4813 32.0784ZM31.6875 32.0784H32.3227V35.3209L31.6875 35.4881V32.0784ZM42.8192 40.9536C43.1702 40.9536 43.4209 40.9035 43.5713 40.7698C43.7217 40.6528 43.7886 40.402 43.7886 40.051V33.0144C43.7886 32.6634 43.7217 32.4127 43.5546 32.2622C43.4042 32.1285 43.1534 32.045 42.8025 32.045H40.8636V30.9084H43.1702C43.4543 30.9084 43.6549 30.8415 43.7384 30.7413C43.8387 30.6243 43.8889 30.4404 43.8889 30.2064V29.0364C43.8722 28.7188 43.822 28.5016 43.7217 28.4013C43.6382 28.3177 43.4543 28.2676 43.1702 28.2676H40.8636V26.6964C40.8636 26.5293 40.8135 26.4123 40.7132 26.312C40.5962 26.2284 40.4625 26.195 40.2953 26.195H38.7409C38.5738 26.195 38.4401 26.2284 38.3565 26.312C38.2562 26.4123 38.2061 26.5293 38.2061 26.6964V32.045H36.7352C36.4344 32.045 36.2004 32.1285 36.0332 32.279C35.8661 32.4294 35.7825 32.6801 35.7825 33.0311V40.0176C35.7825 40.402 35.8661 40.6695 36.0332 40.7865C36.2171 40.9035 36.4511 40.9536 36.7519 40.9536H42.8192ZM38.4735 38.3128V34.7025H41.0809V38.3128H38.4735Z" fill="white"/>
<path fill-rule="evenodd" clip-rule="evenodd" d="M51.7556 23.6985L41.4609 5.8675C40.8078 4.73626 39.6008 4.03939 38.2945 4.03939L17.7051 4.03938C16.3988 4.03938 15.1918 4.73626 14.5387 5.8675L4.24395 23.6985C3.59083 24.8297 3.59083 26.2235 4.24395 27.3547L14.5387 45.1857C15.1918 46.317 16.3988 47.0138 17.7051 47.0138H38.2945C39.6008 47.0138 40.8078 46.317 41.4609 45.1857L51.7556 27.3547C52.4088 26.2235 52.4088 24.8297 51.7556 23.6985ZM42.3656 5.34518C41.5259 3.89073 39.974 2.99475 38.2945 2.99475L17.7051 2.99475C16.0256 2.99475 14.4737 3.89073 13.634 5.34518L3.33927 23.1762C2.49954 24.6306 2.49954 26.4226 3.33927 27.877L13.634 45.708C14.4737 47.1625 16.0256 48.0585 17.7051 48.0585H38.2945C39.974 48.0585 41.5259 47.1625 42.3656 45.708L52.6603 27.877C53.5 26.4226 53.5 24.6306 52.6603 23.1762L42.3656 5.34518Z" fill="white"/>
<path fill-rule="evenodd" clip-rule="evenodd" d="M54.3011 23.5026L42.9034 3.76117C42.1803 2.50872 40.8439 1.73719 39.3977 1.73719L16.6023 1.73719C15.1561 1.73719 13.8197 2.50872 13.0966 3.76117L1.69888 23.5026C0.975786 24.7551 0.975786 26.2981 1.69888 27.5506L13.0966 47.2921C13.8197 48.5445 15.1561 49.316 16.6023 49.316H39.3977C40.8439 49.316 42.1803 48.5445 42.9034 47.2921L54.3011 27.5506C55.0242 26.2982 55.0242 24.7551 54.3011 23.5026ZM43.905 3.18289C42.9753 1.5726 41.2571 0.580628 39.3977 0.580628L16.6023 0.580627C14.7429 0.580627 13.0247 1.5726 12.095 3.18289L0.697273 22.9244C-0.232425 24.5346 -0.232423 26.5186 0.697274 28.1289L12.095 47.8703C13.0247 49.4806 14.7429 50.4726 16.6023 50.4726H39.3977C41.2571 50.4726 42.9753 49.4806 43.905 47.8703L55.3027 28.1289C56.2324 26.5186 56.2324 24.5346 55.3027 22.9244L43.905 3.18289Z" fill="white"/>
</svg>
