<svg width="12" height="14" viewBox="0 0 12 14" fill="none" xmlns="http://www.w3.org/2000/svg">
<path d="M2.66667 6L4 6V7.33333L2.66667 7.33333L2.66667 6ZM12 2.66667L12 12C12 12.7333 11.4 13.3333 10.6667 13.3333L1.33333 13.3333C0.979711 13.3333 0.640573 13.1929 0.390524 12.9428C0.140476 12.6928 0 12.3536 0 12L0.00666666 2.66667C0.00666666 1.93333 0.593333 1.33333 1.33333 1.33333H2V0L3.33333 0V1.33333L8.66667 1.33333V0L10 0V1.33333L10.6667 1.33333C11.4 1.33333 12 1.93333 12 2.66667ZM1.33333 4L10.6667 4V2.66667L1.33333 2.66667L1.33333 4ZM10.6667 12L10.6667 5.33333L1.33333 5.33333L1.33333 12L10.6667 12ZM8 7.33333L9.33333 7.33333V6L8 6V7.33333ZM5.33333 7.33333H6.66667V6H5.33333V7.33333Z" fill="#7F977B"/>
</svg>
