<svg width="73" height="71" viewBox="0 0 73 71" fill="none" xmlns="http://www.w3.org/2000/svg">
<path d="M3.53906 70.1999H49.3535C51.1578 70.1999 52.626 68.7305 52.626 66.9249V50.5499C52.626 50.5281 52.6151 50.5106 52.6129 50.4888C52.7329 50.4124 52.8573 50.3403 52.9751 50.2595L70.3977 67.6956C70.4981 67.8 70.6184 67.8834 70.7514 67.9408C70.8844 67.9981 71.0275 68.0285 71.1723 68.0299C71.3171 68.0314 71.4608 68.004 71.595 67.9493C71.7291 67.8946 71.851 67.8137 71.9535 67.7113C72.0561 67.609 72.1373 67.4872 72.1923 67.3531C72.2474 67.2191 72.2752 67.0753 72.2741 66.9304C72.2731 66.7855 72.2432 66.6422 72.1862 66.5089C72.1292 66.3756 72.0463 66.2551 71.9423 66.1542L54.6789 48.8775C56.0955 47.5547 57.2253 45.9547 57.998 44.1766C58.7707 42.3986 59.17 40.4805 59.1709 38.5416C59.1688 36.1591 58.5669 33.8156 57.4207 31.7275C56.2745 29.6394 54.621 27.874 52.6129 26.5944C52.6151 26.5726 52.626 26.5551 52.626 26.5333V21.0749C52.626 21.0378 52.6086 21.0072 52.6064 20.9723C52.602 20.9221 52.5889 20.8784 52.578 20.8304C52.5438 20.6787 52.4767 20.5364 52.3817 20.4134C52.3664 20.3937 52.3686 20.3697 52.3533 20.3501L34.9002 0.700052C34.8936 0.693502 34.8849 0.693502 34.8784 0.686952C34.7455 0.547339 34.5774 0.446254 34.3918 0.394385C34.3504 0.381285 34.3133 0.376919 34.2697 0.370369C34.2064 0.359452 34.1475 0.333252 34.0821 0.333252H3.53906C1.73485 0.333252 0.266602 1.80264 0.266602 3.60825V66.9249C0.266602 68.7305 1.73485 70.1999 3.53906 70.1999ZM56.9893 38.5416C56.9893 45.1636 51.605 50.5499 44.9903 50.5499C38.3755 50.5499 32.9912 45.1636 32.9912 38.5416C32.9912 31.9195 38.3755 26.5333 44.9903 26.5333C51.605 26.5333 56.9893 31.9195 56.9893 38.5416ZM35.1729 4.296L49.107 19.9833H36.2637C35.7837 19.9833 35.1729 19.0663 35.1729 18.3458V4.296ZM2.44824 3.60825C2.44824 3.31872 2.56317 3.04105 2.76774 2.83633C2.97231 2.6316 3.24976 2.51659 3.53906 2.51659H32.9912V18.3458C32.9912 20.1121 34.4202 22.1666 36.2637 22.1666H50.4444V25.4438C47.8092 24.3406 44.9018 24.0629 42.1057 24.6472C39.3096 25.2314 36.7562 26.6503 34.7824 28.7166H12.2656C11.9763 28.7166 11.6989 28.8316 11.4943 29.0363C11.2897 29.2411 11.1748 29.5187 11.1748 29.8083C11.1748 30.0978 11.2897 30.3755 11.4943 30.5802C11.6989 30.7849 11.9763 30.8999 12.2656 30.8999H33.061C31.7967 32.8667 31.0424 35.1179 30.8663 37.4499H12.2656C11.9763 37.4499 11.6989 37.5649 11.4943 37.7697C11.2897 37.9744 11.1748 38.2521 11.1748 38.5416C11.1748 38.8311 11.2897 39.1088 11.4943 39.3135C11.6989 39.5182 11.9763 39.6333 12.2656 39.6333H30.8641C31.0413 41.965 31.7955 44.216 33.0589 46.1833H12.2656C11.9763 46.1833 11.6989 46.2983 11.4943 46.503C11.2897 46.7077 11.1748 46.9854 11.1748 47.2749C11.1748 47.5644 11.2897 47.8421 11.4943 48.0468C11.6989 48.2516 11.9763 48.3666 12.2656 48.3666H34.6275C34.6733 48.3666 34.7125 48.3469 34.7584 48.3404C36.7315 50.4154 39.2879 51.8416 42.089 52.4303C44.8901 53.0191 47.8038 52.7425 50.4444 51.6372V66.9249C50.4444 67.2144 50.3294 67.4921 50.1249 67.6968C49.9203 67.9016 49.6429 68.0166 49.3535 68.0166H3.53906C2.9282 68.0166 2.44824 67.5363 2.44824 66.9249V3.60825Z" fill="#7F977B"/>
</svg>
